<?xml version="1.0" encoding="UTF-8" standalone="no"?>
<!-- Created with Inkscape (http://www.inkscape.org/) -->

<svg
   xmlns:dc="http://purl.org/dc/elements/1.1/"
   xmlns:cc="http://creativecommons.org/ns#"
   xmlns:rdf="http://www.w3.org/1999/02/22-rdf-syntax-ns#"
   xmlns:svg="http://www.w3.org/2000/svg"
   xmlns="http://www.w3.org/2000/svg"
   xmlns:sodipodi="http://sodipodi.sourceforge.net/DTD/sodipodi-0.dtd"
   xmlns:inkscape="http://www.inkscape.org/namespaces/inkscape"
   width="744.09448819"
   height="1052.3622047"
   id="svg2"
   sodipodi:version="0.32"
   inkscape:version="0.47 r22583"
   sodipodi:docname="logopurple.svg"
   inkscape:output_extension="org.inkscape.output.svg.inkscape"
   inkscape:export-filename="/Users/daniel/Desktop/itv_logo.png"
   inkscape:export-xdpi="104.61"
   inkscape:export-ydpi="104.61"
   version="1.1">
  <defs
     id="defs4">
    <inkscape:perspective
       sodipodi:type="inkscape:persp3d"
       inkscape:vp_x="0 : 526.18109 : 1"
       inkscape:vp_y="0 : 1000 : 0"
       inkscape:vp_z="744.09448 : 526.18109 : 1"
       inkscape:persp3d-origin="372.04724 : 350.78739 : 1"
       id="perspective10" />
    <inkscape:perspective
       id="perspective3667"
       inkscape:persp3d-origin="0.5 : 0.33333333 : 1"
       inkscape:vp_z="1 : 0.5 : 1"
       inkscape:vp_y="0 : 1000 : 0"
       inkscape:vp_x="0 : 0.5 : 1"
       sodipodi:type="inkscape:persp3d" />
  </defs>
  <sodipodi:namedview
     id="base"
     pagecolor="#ffffff"
     bordercolor="#666666"
     borderopacity="1.0"
     gridtolerance="10000"
     guidetolerance="10"
     objecttolerance="10"
     inkscape:pageopacity="0.0"
     inkscape:pageshadow="2"
     inkscape:zoom="5.6"
     inkscape:cx="189.48409"
     inkscape:cy="555.28807"
     inkscape:document-units="px"
     inkscape:current-layer="layer1"
     showgrid="false"
     inkscape:window-width="1895"
     inkscape:window-height="1067"
     inkscape:window-x="27"
     inkscape:window-y="41"
     inkscape:window-maximized="0" />
  <metadata
     id="metadata7">
    <rdf:RDF>
      <cc:Work
         rdf:about="">
        <dc:format>image/svg+xml</dc:format>
        <dc:type
           rdf:resource="http://purl.org/dc/dcmitype/StillImage" />
      </cc:Work>
    </rdf:RDF>
  </metadata>
  <g
     inkscape:label="Layer 1"
     inkscape:groupmode="layer"
     id="layer1">
    <rect
       style="fill:none"
       id="rect2864"
       width="188.39284"
       height="57.14286"
       x="87.857147"
       y="436.82648"
       ry="1.3052056e-05" />
    <g
       id="g2421"
       inkscape:export-filename="/Users/daniel/Desktop/itv_logo_s.png"
       inkscape:export-xdpi="107.55"
       inkscape:export-ydpi="107.55">
      <path
         inkscape:export-ydpi="90"
         inkscape:export-xdpi="90"
         inkscape:export-filename="/home/daniel/Projects/itvision/trunk/web/images/g2388.png"
         transform="matrix(0.4141983,0,0,0.4141983,-2.1955251,282.28823)"
         d="m 285.71429,443.79074 c 2.4353,1.86229 -1.30883,4.20151 -3.09524,4.04762 -4.84104,-0.41705 -6.39989,-6.33876 -4.99999,-10.2381 2.50409,-6.97501 11.164,-8.90767 17.38096,-5.95237 9.12363,4.33702 11.4789,16.05077 6.90474,24.52381 -6.09663,11.29323 -20.95888,14.07653 -31.66667,7.85713 -13.47466,-7.82649 -16.68767,-25.87703 -8.8095,-38.80953 9.54153,-15.663 30.8008,-19.30662 45.95239,-9.76188 17.85562,11.24815 21.93046,35.72808 10.71425,53.09525 -12.94956,20.05108 -40.6577,24.55757 -60.2381,11.66663 -22.2485,-14.64751 -27.18697,-45.58897 -12.61901,-67.38096 16.34305,-24.44733 50.52143,-29.81802 74.52382,-13.57139 26.6472,18.03685 32.45032,55.4548 14.52376,81.66668"
         sodipodi:t0="0"
         sodipodi:argument="-18.196709"
         sodipodi:radius="61.145527"
         sodipodi:revolution="3"
         sodipodi:expansion="1"
         sodipodi:cy="443.79074"
         sodipodi:cx="285.71429"
         id="path2383"
         style="fill:#abc837;fill-opacity:1;fill-rule:evenodd;stroke:#000000;stroke-width:1px;stroke-linecap:butt;stroke-linejoin:miter;stroke-opacity:1"
         sodipodi:type="spiral" />
      <path
         id="path2405"
         d="M 112.98369,483.88081 C 109.93162,483.54225 107.14004,482.57029 104.81315,481.03601 C 100.08848,477.92072 97.089734,473.00521 96.345096,467.1553 C 96.190907,465.94398 96.187771,463.52802 96.338767,462.28451 C 96.897976,457.67936 98.90484,453.54876 102.16894,450.28466 C 105.40129,447.05231 109.62148,444.98407 114.46297,444.25957 C 115.16833,444.15401 115.81367,444.12681 117.60644,444.12706 C 120.14504,444.12741 121.02351,444.225 123.03228,444.72985 C 127.20974,445.77975 130.67012,447.78882 133.73059,450.94125 C 136.59354,453.89021 138.60891,457.60818 139.61471,461.79632 L 139.80832,462.60249 L 139.52461,462.88528 C 138.92763,463.48034 132.21378,469.95815 132.2033,469.9492 C 132.19723,469.94402 132.22441,469.75672 132.26369,469.53298 C 132.30297,469.30924 132.33707,468.42722 132.33947,467.57293 C 132.34432,465.8478 132.22122,464.82447 131.81717,463.23135 C 130.8295,459.33703 128.17836,455.8327 124.75177,453.89215 C 122.45162,452.58952 120.20387,452.00299 117.4955,451.99869 C 111.04636,451.98844 105.67583,456.14937 104.37223,462.16621 C 104.17194,463.0907 104.0712,464.65397 104.14774,465.64987 C 104.43482,469.38487 106.29004,472.56861 109.29112,474.47639 C 110.94462,475.52753 112.71998,476.03386 114.77197,476.03953 C 118.10394,476.04873 120.96794,474.57054 122.68516,471.9553 C 122.86546,471.68071 123.02916,471.45604 123.04894,471.45604 C 123.07453,471.45604 126.06871,473.73402 127.28049,474.67542 C 127.29778,474.68886 119.31844,482.42636 118.26282,483.4198 C 118.02109,483.64729 117.92264,483.68288 117.2643,483.78076 C 116.38385,483.91168 113.80529,483.97194 112.98369,483.8808 L 112.98369,483.88081 z"
         style="fill:#800080;stroke:#000000;stroke-width:0.07396398000000000;stroke-opacity:1" />
      <path
         id="path2407"
         d="M 119.7514,468.82442 C 118.18521,467.62642 116.83722,466.56592 116.75586,466.46776 C 116.6745,466.36959 116.54621,466.20112 116.47078,466.09336 L 116.33363,465.89745 L 116.15654,466.06381 C 115.9977,466.21304 115.99087,466.24279 116.09029,466.35265 C 116.47649,466.77939 115.72313,467.53111 114.90676,467.5336 C 114.5315,467.53475 113.94165,467.26212 113.61702,466.93749 C 112.87731,466.19779 112.63706,464.65427 113.08014,463.4882 C 114.00612,461.0512 117.31585,460.03804 120.01436,461.36552 C 123.20999,462.93754 124.46709,467.22698 122.78191,470.80886 C 122.72927,470.92073 122.66659,471.01009 122.64261,471.00743 C 122.61863,471.00477 121.31759,470.02241 119.7514,468.82442 L 119.7514,468.82442 z"
         style="fill:#00aa88;stroke:#000000;stroke-width:0.07396398000000000;stroke-opacity:1" />
      <path
         id="path2397"
         d="M 132.98812,478.92511 C 131.28665,477.62092 129.89453,476.50878 129.89453,476.45369 C 129.89453,476.3986 130.18559,475.78532 130.54134,475.09084 C 131.24354,473.72001 131.74871,472.30897 132.03354,470.92288 L 132.21494,470.04008 L 133.48063,468.84052 C 134.17676,468.18076 135.87858,466.54654 137.26245,465.20891 C 139.48681,463.05889 139.78661,462.80997 139.84778,463.06234 C 140.26545,464.78574 140.34721,469.02803 140.00294,471.11336 C 139.41198,474.69285 138.44322,477.3773 136.69593,480.27704 L 136.08171,481.29637 L 132.98812,478.92511 z"
         style="fill:#00aa88;stroke:#000000;stroke-width:0.12626907;stroke-opacity:1" />
      <path
         inkscape:export-ydpi="90"
         inkscape:export-xdpi="90"
         inkscape:export-filename="/home/daniel/Projects/itvision/trunk/web/images/logopurple.png"
         id="path2399"
         d="M 118.28409,483.50932 C 118.35006,483.45175 120.40554,481.46024 122.85181,479.08374 C 126.6166,475.42633 127.334,474.78231 127.52376,474.88968 C 127.64707,474.95944 128.10149,475.29397 128.53358,475.63308 L 129.3192,476.24964 L 128.73407,477.0592 C 126.6359,479.9621 123.15214,482.30783 119.47733,483.29208 C 118.13354,483.65199 118.11718,483.65497 118.28409,483.50932 L 118.28409,483.50932 z"
         style="fill:#00aa88;stroke:#000000;stroke-width:0.12626907;stroke-opacity:1" />
    </g>
    <text
       xml:space="preserve"
       style="font-size:48px;font-style:normal;font-variant:normal;font-weight:bold;font-stretch:normal;text-align:start;line-height:125%;writing-mode:lr-tb;text-anchor:start;fill:#333333;fill-opacity:1;stroke:none;font-family:Apple LiGothic;-inkscape-font-specification:Apple LiGothic Bold"
       x="146.25"
       y="482.005"
       id="text2818"
       sodipodi:linespacing="125%"
       inkscape:export-filename="/Users/daniel/Desktop/itv_logo_s.png"
       inkscape:export-xdpi="107.55"
       inkscape:export-ydpi="107.55"><tspan
         sodipodi:role="line"
         id="tspan2820"
         x="146.25"
         y="482.005">ITvision</tspan></text>
  </g>
</svg>
